# xmcd
#
# Track frame offsets: 
#        150
#        9801
#        14754
#        23599
#        33576
#        44626
#        65073
#        81742
#        88108
#        109847
#        124881
#        135857
#        150461
#        159808
#        167865
#        177926
#        183002
#        189514
#        196870
#        205002
#        212167
#        224683
#        231284
#        240613
#        250169
#
# Disc length: 3528 seconds
#
# Revision: 4
# Processed by: cddbd v1.5.2PL0 Copyright (c) Steve Scherf et al.
# Submitted via: ExactAudioCopy v1.0b3
#
DISCID=580dc619
DTITLE=Frédéric Chopin - Collection Historique - Arthur Rubinstein vol
DTITLE=3 - Mazurkas op. 41, 50, 56, 59, 63, 2 posthumes
DYEAR=1939
DGENRE=Romantique
TTITLE0=Mazurka op. 41 n° 2 en mi mineur (Arthur Rubinstein 1938-1939)
TTITLE1=Mazurka op. 41 n° 3 en si majeur (Arthur Rubinstein 1938-1939)
TTITLE2=Mazurka op. 41 n° 4 en la bémol majeur (Arthur Rubinstein 1938
TTITLE2=1939)
TTITLE3=Mazurka op. 50 n° 1 en sol majeur (Arthur Rubinstein 1938-1939
TTITLE3=)
TTITLE4=Mazurka op. 50 n° 2 en la bémol majeur (Arthur Rubinstein 1938
TTITLE4=1939)
TTITLE5=Mazurka op. 50 n° 3 en ut dièse mineur (Arthur Rubinstein 1938
TTITLE5=1939)
TTITLE6=Mazurka op. 56 n° 1 en si majeur (Arthur Rubinstein 1938-1939)
TTITLE7=Mazurka op. 56 n° 2 en ut majeur (Arthur Rubinstein 1938-1939)
TTITLE8=Mazurka op. 56 n° 3 en ut mineur (Arthur Rubinstein 1938-1939)
TTITLE9=Mazurka op. 59 n° 1 en la mineur (Arthur Rubinstein 1938-1939)
TTITLE10=Mazurka op. 59 n° 2 en la bémol majeur (Arthur Rubinstein 193
TTITLE10=8-1939)
TTITLE11=Mazurka op. 59 n° 3 en fa dièse mineur (Arthur Rubinstein 193
TTITLE11=8-1939)
TTITLE12=Mazurka op. 63 n° 1 en si majeur (Arthur Rubinstein 1938-1939
TTITLE12=)
TTITLE13=Mazurka op. 63 n° 2 en fa mineur (Arthur Rubinstein 1938-1939
TTITLE13=)
TTITLE14=Mazurka op. 63 n° 3 en ut dièse mineur (Arthur Rubinstein 193
TTITLE14=8-1939)
TTITLE15=Mazurka op. 67 n° 1 en sol majeur (Arthur Rubinstein 1938-193
TTITLE15=9)
TTITLE16=Mazurka op. 67 n° 2 en sol mineur (Arthur Rubinstein 1938-193
TTITLE16=9)
TTITLE17=Mazurka op. 67 n° 3 en ut majeur (Arthur Rubinstein 1938-1939
TTITLE17=)
TTITLE18=Mazurka op. 67 n° 4 en la mineur (Arthur Rubinstein 1938-1939
TTITLE18=)
TTITLE19=Mazurka op. 68 n° 1 en ut majeur (Arthur Rubinstein 1938-1939
TTITLE19=)
TTITLE20=Mazurka op. 68 n° 2 en la mineur (Arthur Rubinstein 1938-1939
TTITLE20=)
TTITLE21=Mazurka op. 68 n° 3 en fa majeur (Arthur Rubinstein 1938-1939
TTITLE21=)
TTITLE22=Mazurka op. 68 n° 4 en fa mineur (Arthur Rubinstein 1938-1939
TTITLE22=)
TTITLE23=Mazurka en la mineur op. posthume (Arthur Rubinstein 1938-193
TTITLE23=9)
TTITLE24=Mazurka en la mineur op. posthume (Arthur Rubinstein 1938-193
TTITLE24=9)
EXTD=
EXTT0=
EXTT1=
EXTT2=
EXTT3=
EXTT4=
EXTT5=
EXTT6=
EXTT7=
EXTT8=
EXTT9=
EXTT10=
EXTT11=
EXTT12=
EXTT13=
EXTT14=
EXTT15=
EXTT16=
EXTT17=
EXTT18=
EXTT19=
EXTT20=
EXTT21=
EXTT22=
EXTT23=
EXTT24=
PLAYORDER=
